<svg xmlns="http://www.w3.org/2000/svg" viewBox="0 0 1200 630" fill="none">
  <rect width="1200" height="630" fill="#2C2416"/>
  <!-- Background mandala -->
  <circle cx="900" cy="315" r="250" stroke="#D4872C" stroke-width="0.5" opacity="0.08"/>
  <circle cx="900" cy="315" r="200" stroke="#D4872C" stroke-width="0.5" opacity="0.06"/>
  <circle cx="900" cy="315" r="150" stroke="#D4872C" stroke-width="0.5" opacity="0.04"/>
  <!-- Brand -->
  <text x="80" y="260" font-family="Georgia, serif" font-size="18" fill="#D4872C" letter-spacing="4" opacity="0.7">THE YOUNG SPIRIT OF JAIN DHARMA</text>
  <text x="80" y="340" font-family="Georgia, serif" font-size="72" fill="#F5EDE0" font-weight="300">Young<tspan font-weight="700" font-style="italic" fill="#F0C078">Jains</tspan></text>
  <text x="80" y="400" font-family="sans-serif" font-size="20" fill="#F5EDE0" opacity="0.5" letter-spacing="1">Non-violence · Mindfulness · Compassion · Community</text>
  <!-- Lotus icon -->
  <g transform="translate(80, 440)">
    <path d="M20 0C20 0 8 12 8 22c0 6 5 10 12 10s12-4 12-10C32 12 20 0 20 0z" fill="#D4872C" opacity="0.3"/>
    <path d="M20 6C20 6 12 14 12 20c0 4 3 7 8 7s8-3 8-7C28 14 20 6 20 6z" fill="#D4872C" opacity="0.5"/>
  </g>
  <text x="120" y="462" font-family="Georgia, serif" font-size="16" fill="#D4872C" letter-spacing="2">youngjains.org</text>
</svg>
