<svg xmlns="http://www.w3.org/2000/svg" viewBox="0 0 600 600" fill="none" opacity="0.04">
  <!-- Concentric rings -->
  <circle cx="300" cy="300" r="280" stroke="#D4872C" stroke-width="0.5"/>
  <circle cx="300" cy="300" r="240" stroke="#D4872C" stroke-width="0.5"/>
  <circle cx="300" cy="300" r="200" stroke="#D4872C" stroke-width="0.5"/>
  <circle cx="300" cy="300" r="160" stroke="#D4872C" stroke-width="0.5"/>
  <circle cx="300" cy="300" r="120" stroke="#D4872C" stroke-width="0.5"/>
  <circle cx="300" cy="300" r="80" stroke="#D4872C" stroke-width="0.5"/>
  <circle cx="300" cy="300" r="40" stroke="#D4872C" stroke-width="0.5"/>
  <!-- Radial lines -->
  <g stroke="#D4872C" stroke-width="0.3">
    <line x1="300" y1="20" x2="300" y2="580"/>
    <line x1="20" y1="300" x2="580" y2="300"/>
    <line x1="102" y1="102" x2="498" y2="498"/>
    <line x1="498" y1="102" x2="102" y2="498"/>
    <line x1="300" y1="20" x2="300" y2="580" transform="rotate(22.5 300 300)"/>
    <line x1="300" y1="20" x2="300" y2="580" transform="rotate(45 300 300)"/>
    <line x1="300" y1="20" x2="300" y2="580" transform="rotate(67.5 300 300)"/>
    <line x1="300" y1="20" x2="300" y2="580" transform="rotate(112.5 300 300)"/>
    <line x1="300" y1="20" x2="300" y2="580" transform="rotate(135 300 300)"/>
    <line x1="300" y1="20" x2="300" y2="580" transform="rotate(157.5 300 300)"/>
  </g>
  <!-- Petal shapes at center -->
  <g fill="#D4872C" opacity="0.5">
    <ellipse cx="300" cy="260" rx="12" ry="35" transform="rotate(0 300 300)"/>
    <ellipse cx="300" cy="260" rx="12" ry="35" transform="rotate(45 300 300)"/>
    <ellipse cx="300" cy="260" rx="12" ry="35" transform="rotate(90 300 300)"/>
    <ellipse cx="300" cy="260" rx="12" ry="35" transform="rotate(135 300 300)"/>
    <ellipse cx="300" cy="260" rx="12" ry="35" transform="rotate(180 300 300)"/>
    <ellipse cx="300" cy="260" rx="12" ry="35" transform="rotate(225 300 300)"/>
    <ellipse cx="300" cy="260" rx="12" ry="35" transform="rotate(270 300 300)"/>
    <ellipse cx="300" cy="260" rx="12" ry="35" transform="rotate(315 300 300)"/>
  </g>
  <!-- Center dot -->
  <circle cx="300" cy="300" r="8" fill="#D4872C" opacity="0.4"/>
</svg>
